<svg width="76" height="76" viewBox="0 0 76 76" fill="none" xmlns="http://www.w3.org/2000/svg">
<path d="M67.2912 31.978C65.8972 26.1539 62.7519 20.897 58.279 16.9151C53.8061 12.9331 48.2204 10.4175 42.2742 9.70698C36.3279 8.99645 30.3068 10.1251 25.0216 12.9411C19.7364 15.757 15.4411 20.1249 12.7141 25.4565C9.98703 30.788 8.95926 36.8273 9.76925 42.7608C10.5792 48.6943 13.188 54.2371 17.2443 58.6427C21.3006 63.0483 26.6095 66.1051 32.456 67.4014C38.3026 68.6977 44.406 68.1712 49.9442 65.893C50.7478 65.5442 51.6472 65.4838 52.4902 65.722L60.7362 68.078C61.1474 68.2119 61.5767 68.2824 62.0092 68.287C62.6464 68.2839 63.2751 68.1408 63.851 67.868C64.4268 67.5952 64.9357 67.1992 65.3417 66.7081C65.7477 66.2169 66.0408 65.6426 66.2004 65.0257C66.36 64.4088 66.3821 63.7644 66.2652 63.138L64.5362 54.303C64.4189 53.4891 64.5583 52.6588 64.9352 51.928C68.0647 45.7687 68.8999 38.6968 67.2912 31.978ZM61.8952 50.484C61.163 51.8776 60.9157 53.4752 61.1922 55.025L62.8642 63.898C62.8907 64.0546 62.8766 64.2154 62.8234 64.365C62.7702 64.5147 62.6796 64.6482 62.5602 64.753C62.4441 64.8653 62.2998 64.9441 62.1426 64.9809C61.9853 65.0177 61.821 65.0111 61.6672 64.962L53.4972 62.378C52.8828 62.1815 52.2422 62.079 51.5972 62.074C50.606 62.0861 49.626 62.286 48.7092 62.663C43.0927 64.9557 36.8493 65.2023 31.0694 63.3598C25.2895 61.5174 20.3407 57.7029 17.0873 52.5826C13.8339 47.4624 12.4827 41.3619 13.2698 35.3468C14.0569 29.3316 16.9321 23.7842 21.3934 19.6734C25.8547 15.5626 31.6184 13.1499 37.6778 12.8565C43.7371 12.5632 49.7069 14.408 54.5444 18.0686C59.3819 21.7292 62.7796 26.973 64.144 32.884C65.5084 38.795 64.7529 44.9974 62.0092 50.408L61.8952 50.484Z" fill="#4D4D4F"/>
</svg>
