<svg width="76" height="76" viewBox="0 0 76 76" fill="none" xmlns="http://www.w3.org/2000/svg">
<path d="M68.381 41.3631V61.9401C68.3835 62.4906 68.2772 63.0362 68.0683 63.5455C67.8594 64.0549 67.5519 64.5179 67.1635 64.9081C66.7751 65.2982 66.3134 65.6078 65.805 65.8191C65.2966 66.0303 64.7515 66.1391 64.201 66.1391H47.709C46.5954 66.1391 45.5273 65.6967 44.7399 64.9092C43.9524 64.1217 43.51 63.0537 43.51 61.9401V49.4761C43.51 48.0097 42.9275 46.6034 41.8906 45.5665C40.8537 44.5296 39.4474 43.9471 37.981 43.9471C36.5146 43.9471 35.1083 44.5296 34.0714 45.5665C33.0345 46.6034 32.452 48.0097 32.452 49.4761V61.9401C32.4545 62.4906 32.3482 63.0362 32.1393 63.5455C31.9303 64.0549 31.6229 64.5179 31.2345 64.9081C30.8461 65.2982 30.3844 65.6078 29.876 65.8191C29.3676 66.0303 28.8225 66.1391 28.272 66.1391H11.78C10.6697 66.134 9.6065 65.6894 8.82314 64.9025C8.03978 64.1156 7.6 63.0504 7.60001 61.9401V41.3631C7.59921 39.5126 8.32998 37.7369 9.63301 36.4231L35.226 10.6401C35.5907 10.277 36.0235 9.98944 36.4995 9.79382C36.9755 9.59821 37.4854 9.49839 38 9.50006C38.5092 9.49709 39.0137 9.59647 39.4837 9.7923C39.9537 9.98814 40.3796 10.2764 40.736 10.6401L66.348 36.4231C66.9975 37.0706 67.5117 37.8408 67.8607 38.6889C68.2097 39.5369 68.3866 40.446 68.381 41.3631Z" fill="#4D4D4F"/>
</svg>
