<svg width="76" height="76" viewBox="0 0 76 76" fill="none" xmlns="http://www.w3.org/2000/svg">
<path d="M66.348 36.3486L40.736 10.6416C40.3743 10.2797 39.9448 9.9926 39.4721 9.79671C38.9994 9.60082 38.4927 9.5 37.981 9.5C37.4693 9.5 36.9627 9.60082 36.49 9.79671C36.0172 9.9926 35.5878 10.2797 35.226 10.6416L9.63304 36.3486C8.98469 37.0009 8.47138 37.7747 8.12253 38.6256C7.77367 39.4766 7.59612 40.388 7.60004 41.3076V61.9606C7.59754 62.5112 7.70381 63.0568 7.91275 63.5661C8.12169 64.0754 8.4292 64.5385 8.8176 64.9286C9.20599 65.3188 9.66764 65.6284 10.176 65.8396C10.6844 66.0509 11.2295 66.1596 11.78 66.1596H28.272C29.3857 66.1596 30.4537 65.7172 31.2412 64.9298C32.0286 64.1423 32.471 63.0743 32.471 61.9606V49.4396C32.4269 48.6876 32.5369 47.9344 32.7943 47.2264C33.0518 46.5184 33.4512 45.8704 33.968 45.3223C34.4849 44.7742 35.1083 44.3376 35.8 44.0391C36.4918 43.7406 37.2372 43.5867 37.9905 43.5867C38.7439 43.5867 39.4893 43.7406 40.181 44.0391C40.8728 44.3376 41.4962 44.7742 42.013 45.3223C42.5299 45.8704 42.9293 46.5184 43.1867 47.2264C43.4442 47.9344 43.5542 48.6876 43.51 49.4396V61.9036C43.51 63.0173 43.9524 64.0853 44.7399 64.8728C45.5274 65.6602 46.5954 66.1026 47.709 66.1026H64.258C64.8086 66.1026 65.3537 65.9939 65.8621 65.7826C66.3704 65.5714 66.8321 65.2618 67.2205 64.8716C67.6089 64.4815 67.9164 64.0184 68.1253 63.5091C68.3343 62.9998 68.4405 62.4542 68.438 61.9036V41.3076C68.4345 40.384 68.248 39.4702 67.8892 38.619C67.5305 37.7679 67.0067 36.9962 66.348 36.3486ZM65.626 61.9606C65.6211 62.337 65.4694 62.6966 65.2032 62.9628C64.937 63.229 64.5774 63.3807 64.201 63.3856H47.709C47.3311 63.3856 46.9687 63.2355 46.7014 62.9683C46.4342 62.701 46.284 62.3386 46.284 61.9606V49.4396C46.3378 48.3171 46.1631 47.1954 45.7706 46.1424C45.378 45.0894 44.7758 44.127 44.0004 43.3136C43.225 42.5001 42.2925 41.8526 41.2595 41.4101C40.2264 40.9677 39.1143 40.7396 37.9905 40.7396C36.8667 40.7396 35.7546 40.9677 34.7216 41.4101C33.6886 41.8526 32.7561 42.5001 31.9807 43.3136C31.2053 44.127 30.6031 45.0894 30.2105 46.1424C29.818 47.1954 29.6433 48.3171 29.697 49.4396V61.9036C29.697 62.2816 29.5469 62.644 29.2797 62.9113C29.0124 63.1785 28.65 63.3286 28.272 63.3286H11.78C11.4036 63.3237 11.044 63.172 10.7779 62.9058C10.5117 62.6396 10.36 62.28 10.355 61.9036V41.3076C10.3518 40.7532 10.4594 40.2037 10.6714 39.6915C10.8835 39.1792 11.1958 38.7145 11.59 38.3246L37.183 12.5986C37.2882 12.4949 37.4128 12.4129 37.5498 12.3575C37.6867 12.302 37.8333 12.2742 37.981 12.2756C38.2852 12.2719 38.5786 12.3879 38.798 12.5986L64.391 38.3246C64.7852 38.7145 65.0976 39.1792 65.3096 39.6915C65.5217 40.2037 65.6293 40.7532 65.626 41.3076V61.9606Z" fill="#4D4D4F"/>
</svg>
