<svg width="62" height="53" viewBox="0 0 62 53" fill="none" xmlns="http://www.w3.org/2000/svg">
<path d="M59.1245 28.121C55.3245 35.322 39.0225 47.824 33.1516 52.194C32.5377 52.6561 31.7918 52.9092 31.0235 52.916C30.2543 52.9147 29.5068 52.6611 28.8955 52.194C23.0245 47.824 6.76052 35.322 2.90352 28.121C0.626031 23.8846 0.0104009 18.9511 1.17695 14.2849C2.3435 9.61869 5.20838 5.55529 9.21154 2.88903C11.7563 1.27093 14.7079 0.407852 17.7235 0.40002C20.3244 0.434534 22.8812 1.07607 25.1903 2.27349C27.4994 3.47091 29.4968 5.19112 31.0235 7.29703C32.5471 5.18785 34.5439 3.46523 36.8536 2.26745C39.1634 1.06966 41.7219 0.430071 44.3236 0.40002C47.3649 0.394472 50.3445 1.25804 52.9115 2.88903C56.9021 5.56681 59.7503 9.63677 60.8993 14.3031C62.0483 18.9694 61.4155 23.8965 59.1245 28.121Z" fill="#4D4D4F"/>
</svg>
